PathFileType	4	(X/Y/Z)	TVC_39_BWA_04_walk_RCNL2025.trc
DataRate	CameraRate	NumFrames	NumMarkers	Units	OrigDataRate	OrigDataStartFrame	OrigNumFrames
100	100	12	27	mm	100	476	1269
Frame#	Time	R_Shoulder			L_Shoulder			C7			J_Notch			R_Elbow			L_Elbow			R_Wrist			L_Wrist			R_Asis			L_Asis			R_Psis			L_Psis			Sacral			Thoracic			Sternum			R_Thigh_Lateral			R_Knee_Lateral			R_Shank_Lateral			R_Ankle_Lateral			R_Heel			R_Toe			L_Thigh_Lateral			L_Knee_Lateral			L_Shank_Lateral			L_Ankle_Lateral			L_Heel			L_Toe		
		X1	Y1	Z1	X2	Y2	Z2	X3	Y3	Z3	X4	Y4	Z4	X5	Y5	Z5	X6	Y6	Z6	X7	Y7	Z7	X8	Y8	Z8	X9	Y9	Z9	X10	Y10	Z10	X11	Y11	Z11	X12	Y12	Z12	X13	Y13	Z13	X14	Y14	Z14	X15	Y15	Z15	X16	Y16	Z16	X17	Y17	Z17	X18	Y18	Z18	X19	Y19	Z19	X20	Y20	Z20	X21	Y21	Z21	X22	Y22	Z22	X23	Y23	Z23	X24	Y24	Z24	X25	Y25	Z25	X26	Y26	Z26	X27	Y27	Z27
476	4.75000000	-554.226562	1460.234497	437.829346	-477.484711	1472.824951	82.232643	-552.342957	1527.641357	251.429108	-404.024261	1401.666016	275.541718	-558.130981	1145.836304	566.071106	-512.153137	1162.263062	-47.070545	-443.132492	918.803284	543.238312	-418.001587	921.470276	1.786358	-478.557220	929.717590	407.168823	-434.610687	916.597168	115.441124	-661.496216	955.902466	286.313324	-645.424988	941.740906	179.776260	-653.460602	948.821686	233.044792	-644.059631	1201.874390	224.561462	-365.315887	1239.363770	288.668610	-520.411499	728.692505	476.915375	-515.924011	461.592041	403.785248	-607.719055	289.158234	453.682648	-655.822693	74.666519	349.285217	-697.502502	63.350052	293.957520	-516.856262	44.386711	367.526367	-434.148315	672.077454	32.634418	-342.144684	473.960297	113.526985	-376.173401	342.107758	44.998310	-422.518311	76.574379	113.336990	-473.623383	57.935978	164.652161	-282.706146	43.502804	120.124039
477	4.76000000	-552.090698	1461.137329	435.544250	-475.282990	1472.118652	79.488777	-550.357422	1527.951538	248.808777	-401.742249	1402.455688	273.308685	-555.936279	1146.784912	564.046021	-509.001923	1160.937622	-48.465488	-440.778107	919.828583	540.954086	-416.135773	919.555084	-0.371857	-475.358734	929.997253	406.171509	-430.694275	917.302979	114.481293	-658.099365	956.053162	284.979401	-641.749084	942.128723	178.459930	-649.924225	949.090942	231.719666	-641.141296	1201.867310	223.116257	-362.603546	1240.306274	287.022583	-517.736755	728.727234	475.488037	-515.399902	461.817078	402.561676	-607.699890	289.718475	452.903809	-655.776917	74.828461	349.123627	-697.468445	63.438267	293.811310	-516.799683	44.408688	367.504852	-431.433838	672.183289	31.598129	-340.369049	473.628387	112.809502	-375.185181	341.754425	44.382973	-422.296814	76.436050	113.214066	-473.419891	57.987133	164.530731	-282.498535	43.407200	119.867172
478	4.77000000	-549.903198	1462.027710	433.295380	-473.082611	1471.485718	76.795715	-548.361206	1528.277100	246.245056	-399.438904	1403.273071	271.084930	-553.659973	1147.724854	562.043884	-505.858429	1159.703003	-49.826355	-438.328964	920.856201	538.605408	-414.293060	917.717773	-2.582235	-472.111298	930.270447	405.069183	-426.777954	918.057312	113.411942	-654.678650	956.232910	283.583801	-638.068787	942.564087	177.079391	-646.373718	949.398499	230.331596	-638.205017	1201.884766	221.671112	-359.857452	1241.271973	285.345734	-515.069580	728.773987	473.975159	-514.967773	462.074310	401.281403	-607.735291	290.309326	452.102570	-655.742249	74.992867	348.966034	-697.441589	63.521873	293.672943	-516.748413	44.431786	367.482880	-428.729431	672.332153	30.443027	-338.718170	473.289276	111.982407	-374.295349	341.373657	43.687351	-422.074554	76.278404	113.072952	-473.215729	58.019745	164.400604	-282.281281	43.305965	119.622910
479	4.78000000	-547.664307	1462.899170	431.083801	-470.883484	1470.928467	74.157303	-546.352295	1528.614258	243.740601	-397.114288	1404.110596	268.872101	-551.298767	1148.648926	560.066467	-502.730652	1158.562866	-51.155319	-435.784851	921.878418	536.198334	-412.474335	915.965973	-4.839589	-468.822113	930.534546	403.865173	-422.869568	918.846252	112.235970	-651.240540	956.436279	282.127808	-634.390503	943.038330	175.636490	-642.815521	949.737305	228.882149	-635.253784	1201.924805	220.222321	-357.080231	1242.252686	283.638123	-512.417847	728.830444	472.385498	-514.620056	462.358734	399.956696	-607.818237	290.924713	451.285156	-655.718628	75.160034	348.813965	-697.420288	63.601505	293.544128	-516.703064	44.455193	367.460815	-425.998901	672.523987	29.183523	-337.171967	472.943207	111.068787	-373.449921	340.967590	42.931801	-421.858124	76.108948	112.917694	-473.020081	58.042488	164.260971	-282.065002	43.196537	119.396667
480	4.79000000	-545.374756	1463.745361	428.910065	-468.685516	1470.448486	71.576385	-544.328857	1528.960083	241.297226	-394.768738	1404.961182	266.671478	-548.849792	1149.549927	558.114441	-499.627289	1157.520996	-52.456409	-433.145706	922.887390	533.739517	-410.680023	914.307892	-7.138778	-465.498993	930.787598	402.563751	-418.976379	919.656738	110.957253	-647.791565	956.658081	280.613007	-630.720337	943.542908	174.133377	-639.255951	950.100494	227.373192	-632.290894	1201.985352	218.766113	-354.274963	1243.240723	281.899994	-509.789673	728.894653	470.728424	-514.347473	462.665924	398.599518	-607.941650	291.559235	450.457184	-655.705566	75.331047	348.668396	-697.402588	63.678608	293.425781	-516.663696	44.478115	367.439178	-423.220520	672.755615	27.833485	-335.712006	472.591156	110.089073	-372.608917	340.539764	42.134140	-421.652405	75.934486	112.751465	-472.839111	58.061996	164.111267	-281.857788	43.078682	119.190979
481	4.80000000	-543.035828	1464.561157	426.774261	-466.488678	1470.046875	69.054787	-542.289429	1529.311768	238.915985	-392.402893	1405.817871	264.484009	-546.309998	1150.421021	556.187012	-496.557526	1156.580811	-53.735409	-430.411758	923.875397	531.236160	-408.910004	912.751862	-9.474778	-462.150299	931.028259	401.170227	-415.104919	920.476624	109.580544	-644.338135	956.893555	279.041229	-627.064026	944.069946	172.572510	-635.701080	950.481750	225.806870	-629.319580	1202.065063	217.298828	-351.445007	1244.228638	280.131897	-507.193176	728.965271	469.013428	-514.139465	462.992218	397.220856	-608.097717	292.208496	449.623566	-655.701904	75.507927	348.529694	-697.385925	63.755623	293.317963	-516.630371	44.499866	367.418640	-420.387848	673.020630	26.406120	-334.322510	472.234375	109.060799	-371.748474	340.094910	41.309334	-421.460632	75.760651	112.576721	-472.676575	58.082745	163.951416	-281.665222	42.953949	119.006180
482	4.81000000	-540.649475	1465.341919	424.676117	-464.292938	1469.724487	66.593384	-540.232666	1529.667236	236.597198	-390.017639	1406.674805	262.310455	-543.676880	1151.255737	554.282532	-493.530762	1155.745605	-54.999653	-427.583542	924.835052	528.695938	-407.163589	911.306396	-11.842739	-458.784760	931.256287	399.690765	-411.260864	921.295471	108.111534	-640.886658	957.138672	277.414551	-623.426819	944.612122	170.956528	-632.156738	950.875397	224.185539	-626.343323	1202.162354	215.816971	-348.594025	1245.209961	278.334412	-504.636047	729.041626	467.250092	-513.983948	463.334900	395.830475	-608.278320	292.869385	448.788422	-655.705688	75.693710	348.397339	-697.367249	63.836189	293.219696	-516.602539	44.519909	367.399841	-417.507782	673.310364	24.914095	-332.990845	471.874481	107.998528	-370.859467	339.638153	40.469425	-421.284851	75.591660	112.395248	-472.534210	58.107182	163.781830	-281.490387	42.825043	118.841148
483	4.82000000	-538.218140	1466.083984	422.615051	-462.098419	1469.481445	64.192169	-538.157593	1530.024536	234.340515	-387.614197	1407.526611	260.151337	-540.948059	1152.048340	552.398254	-490.556213	1155.017944	-56.257805	-424.661865	925.759552	526.126678	-405.439743	909.979828	-14.238043	-455.411346	931.472473	398.132263	-407.448975	922.104248	106.556755	-637.443359	957.390015	275.735199	-619.813477	945.163025	169.288177	-628.628418	951.276520	222.511688	-623.365479	1202.276611	214.317261	-345.725922	1246.178833	276.508606	-502.125671	729.124207	465.448151	-513.867859	463.692261	394.436615	-608.474792	293.540466	447.954926	-655.714294	75.892479	348.269775	-697.343384	63.925308	293.128998	-516.579712	44.537838	367.383453	-414.597107	673.614685	23.369751	-331.707642	471.513214	106.914116	-369.944458	339.174561	39.623646	-421.126038	75.430122	112.208351	-472.412476	58.136082	163.603165	-281.334229	42.695221	118.693794
484	4.83000000	-535.744690	1466.784912	420.590057	-459.905334	1469.317505	61.850338	-536.063660	1530.382935	232.144943	-385.194000	1408.369019	258.007019	-538.122070	1152.794189	550.530701	-487.642700	1154.400391	-57.519512	-421.648056	926.642822	523.536438	-403.736893	908.779999	-16.656360	-452.039185	931.678833	396.502258	-403.673279	922.895874	104.923599	-634.014221	957.645081	274.005524	-616.228516	945.717285	167.570358	-625.121368	951.681183	220.787941	-620.389587	1202.407227	212.796722	-342.844879	1247.130859	274.655640	-499.668854	729.214844	463.617218	-513.776917	464.063843	393.046173	-608.678345	294.222168	447.125122	-655.724243	76.109329	348.144440	-697.310791	64.029388	293.042603	-516.560913	44.553417	367.370026	-411.678284	673.923584	21.785177	-330.466583	471.152374	105.817070	-369.013489	338.708679	38.778515	-420.984650	75.277046	112.017021	-472.310822	58.168987	163.416016	-281.195801	42.567764	118.561546
485	4.84000000	-533.232666	1467.443237	418.600006	-457.714050	1469.232178	59.566383	-533.950500	1530.741821	230.008926	-382.758759	1409.198486	255.877777	-535.197937	1153.489502	548.675781	-484.798248	1153.894775	-58.795071	-418.543884	927.479767	520.933258	-402.053253	907.714172	-19.093704	-448.677399	931.878296	394.808655	-399.937195	923.664917	103.220222	-630.604858	957.902405	272.228027	-612.675720	946.270569	165.806122	-621.640289	952.086487	219.017075	-617.419006	1202.554077	211.252640	-339.955109	1248.062256	272.777100	-497.271484	729.317017	461.766479	-513.695801	464.450165	391.664673	-608.879822	294.917084	446.299866	-655.731567	76.350365	348.017700	-697.265625	64.156273	292.955902	-516.544983	44.566586	367.359833	-408.775604	674.227661	20.172026	-329.263885	470.793884	104.714890	-368.080017	338.244019	37.938087	-420.860535	75.132080	111.822174	-472.228210	58.204659	163.220688	-281.073029	42.445599	118.441696
486	4.85000000	-530.685791	1468.058350	416.643433	-455.525024	1469.224487	57.338196	-531.818176	1531.101318	227.930466	-380.310333	1410.012573	253.763718	-532.176086	1154.131836	546.828674	-482.029755	1153.502563	-60.095036	-415.351639	928.266479	518.324997	-400.386688	906.788574	-21.546484	-445.334900	932.074951	393.059692	-396.243744	924.407532	101.455482	-627.220642	958.161377	270.405426	-609.158630	946.819519	163.998688	-618.189636	952.490448	217.202057	-614.457092	1202.717773	209.682556	-337.061005	1248.970215	270.874725	-494.938507	729.435669	459.904480	-513.608276	464.852844	390.296478	-609.069946	295.629822	445.478699	-655.731506	76.622589	347.884918	-697.203491	64.315125	292.862793	-516.530457	44.577465	367.352814	-405.912079	674.519043	18.541380	-328.097900	470.439667	103.613495	-367.157562	337.782990	37.104374	-420.753448	74.993942	111.624756	-472.163239	58.241539	163.017242	-280.963013	42.331070	118.331650
487	4.86000000	-528.108276	1468.631104	414.718750	-453.338928	1469.293091	55.163158	-529.667053	1531.462402	225.907104	-377.850861	1410.809570	251.664948	-529.058167	1154.719849	544.984436	-479.342743	1153.224609	-61.429802	-412.074127	929.000214	515.719193	-398.734848	906.008270	-24.011539	-442.020203	932.273865	391.263611	-392.595947	925.121155	99.638809	-623.866577	958.422241	268.540588	-605.680481	947.362000	162.151413	-614.773529	952.892120	215.346001	-611.507080	1202.898804	208.084335	-334.166992	1249.853516	268.950623	-492.673462	729.577332	458.038940	-513.497070	465.274261	388.944916	-609.239136	296.366699	444.660034	-655.718994	76.933670	347.740631	-697.119507	64.516258	292.755920	-516.515442	44.586319	367.348602	-403.107391	674.791504	16.903603	-326.968597	470.091675	102.517448	-366.257690	337.326874	36.278000	-420.662964	74.860870	111.425835	-472.114685	58.278103	162.805481	-280.862823	42.225826	118.229149
